<?xml version="1.0" encoding="utf-8"?>
<!-- Generator: Adobe Illustrator 21.1.0, SVG Export Plug-In . SVG Version: 6.00 Build 0)  -->
<svg version="1.1" id="Layer_1" xmlns="http://www.w3.org/2000/svg" xmlns:xlink="http://www.w3.org/1999/xlink" x="0px" y="0px"
	 viewBox="0 0 55 62" style="enable-background:new 0 0 55 62;" xml:space="preserve">
<style type="text/css">
	.st0{fill:#FFFFFF;}
</style>
<title>volume-mute</title>
<desc>Created with Sketch.</desc>
<path class="st0" d="M27,1.1L10.3,19H2c-1.1,0-2,0.9-2,2v20c0,1.1,0.9,2,2,2h8.4L27,60.7c1.1,1.2,2.1,0.9,2.1-0.8v-58
	C29.1,0.3,28.2-0.1,27,1.1z M23.1,47.7L13,37H6V25h6.9l10.2-10.9C23.1,14.1,23.1,47.7,23.1,47.7z M54.6,24.6l-4.2-4.2L44,26.8
	l-6.4-6.4l-4.2,4.2l6.4,6.4l-6.4,6.4l4.2,4.2l6.4-6.4l6.4,6.4l4.2-4.2L48.2,31L54.6,24.6z"/>
</svg>
